<mxfile host="65bd71144e">
    <diagram id="4i9e_BhPc6tHneN_LrkJ" name="第 1 页">
        <mxGraphModel dx="1068" dy="676" grid="1" gridSize="10" guides="1" tooltips="1" connect="1" arrows="1" fold="1" page="1" pageScale="1" pageWidth="827" pageHeight="1169" math="0" shadow="0">
            <root>
                <mxCell id="0"/>
                <mxCell id="1" parent="0"/>
                <mxCell id="4" value="" style="whiteSpace=wrap;html=1;fillColor=#60a917;strokeColor=#CC0066;fontColor=#ffffff;border: 0 1px 1px 1px;borderColor: #333;" vertex="1" parent="1">
                    <mxGeometry x="100" y="280" width="120" height="220" as="geometry"/>
                </mxCell>
                <mxCell id="5" value="入栈" style="text;html=1;resizable=0;autosize=1;align=center;verticalAlign=middle;points=[];fillColor=#d80073;strokeColor=#A50040;rounded=0;fontColor=#ffffff;" vertex="1" parent="1">
                    <mxGeometry x="140" y="210" width="40" height="20" as="geometry"/>
                </mxCell>
                <mxCell id="6" value="栈顶" style="text;html=1;resizable=0;autosize=1;align=center;verticalAlign=middle;points=[];fillColor=#008a00;strokeColor=#005700;rounded=0;fontColor=#ffffff;" vertex="1" parent="1">
                    <mxGeometry x="230" y="280" width="40" height="20" as="geometry"/>
                </mxCell>
                <mxCell id="7" value="栈尾" style="text;html=1;resizable=0;autosize=1;align=center;verticalAlign=middle;points=[];fillColor=#008a00;strokeColor=#005700;rounded=0;fontColor=#ffffff;" vertex="1" parent="1">
                    <mxGeometry x="230" y="480" width="40" height="20" as="geometry"/>
                </mxCell>
                <mxCell id="22" value="" style="whiteSpace=wrap;html=1;strokeColor=#transpant;fillColor=#d80073;fontColor=#ffffff;" vertex="1" parent="1">
                    <mxGeometry x="120" y="460" width="80" height="30" as="geometry"/>
                </mxCell>
                <mxCell id="23" value="element" style="text;html=1;resizable=0;autosize=1;align=center;verticalAlign=middle;points=[];fillColor=#d80073;strokeColor=#transpant;rounded=0;fontColor=#ffffff;" vertex="1" parent="1">
                    <mxGeometry x="130" y="465" width="60" height="20" as="geometry"/>
                </mxCell>
                <mxCell id="40" value="" style="edgeStyle=orthogonalEdgeStyle;rounded=1;orthogonalLoop=1;jettySize=auto;html=1;" edge="1" parent="1" source="24" target="23">
                    <mxGeometry relative="1" as="geometry"/>
                </mxCell>
                <mxCell id="24" value="" style="whiteSpace=wrap;html=1;strokeColor=#transpant;fillColor=#d80073;fontColor=#ffffff;" vertex="1" parent="1">
                    <mxGeometry x="120" y="410" width="80" height="30" as="geometry"/>
                </mxCell>
                <mxCell id="25" value="element" style="text;html=1;resizable=0;autosize=1;align=center;verticalAlign=middle;points=[];fillColor=#d80073;strokeColor=#transpant;rounded=0;fontColor=#ffffff;" vertex="1" parent="1">
                    <mxGeometry x="130" y="415" width="60" height="20" as="geometry"/>
                </mxCell>
                <mxCell id="26" value="" style="whiteSpace=wrap;html=1;strokeColor=#transpant;fillColor=#d80073;fontColor=#ffffff;" vertex="1" parent="1">
                    <mxGeometry x="120" y="360" width="80" height="30" as="geometry"/>
                </mxCell>
                <mxCell id="39" value="" style="edgeStyle=orthogonalEdgeStyle;rounded=1;orthogonalLoop=1;jettySize=auto;html=1;" edge="1" parent="1" source="27" target="25">
                    <mxGeometry relative="1" as="geometry"/>
                </mxCell>
                <mxCell id="27" value="element" style="text;html=1;resizable=0;autosize=1;align=center;verticalAlign=middle;points=[];fillColor=#d80073;strokeColor=#transpant;rounded=0;fontColor=#ffffff;" vertex="1" parent="1">
                    <mxGeometry x="130" y="365" width="60" height="20" as="geometry"/>
                </mxCell>
                <mxCell id="37" value="" style="edgeStyle=orthogonalEdgeStyle;rounded=1;orthogonalLoop=1;jettySize=auto;html=1;" edge="1" parent="1" source="28" target="27">
                    <mxGeometry relative="1" as="geometry"/>
                </mxCell>
                <mxCell id="28" value="" style="whiteSpace=wrap;html=1;strokeColor=#transpant;fillColor=#d80073;fontColor=#ffffff;" vertex="1" parent="1">
                    <mxGeometry x="120" y="300" width="80" height="30" as="geometry"/>
                </mxCell>
                <mxCell id="29" value="element" style="text;html=1;resizable=0;autosize=1;align=center;verticalAlign=middle;points=[];fillColor=#d80073;strokeColor=#transpant;rounded=0;fontColor=#ffffff;" vertex="1" parent="1">
                    <mxGeometry x="130" y="305" width="60" height="20" as="geometry"/>
                </mxCell>
                <mxCell id="43" value="" style="whiteSpace=wrap;html=1;fillColor=#60a917;strokeColor=#CC0066;fontColor=#ffffff;border: 0 1px 1px 1px;borderColor: #333;" vertex="1" parent="1">
                    <mxGeometry x="400" y="280" width="120" height="220" as="geometry"/>
                </mxCell>
                <mxCell id="44" value="出栈" style="text;html=1;resizable=0;autosize=1;align=center;verticalAlign=middle;points=[];fillColor=#d80073;strokeColor=#A50040;rounded=0;fontColor=#ffffff;" vertex="1" parent="1">
                    <mxGeometry x="440" y="210" width="40" height="20" as="geometry"/>
                </mxCell>
                <mxCell id="45" value="栈顶" style="text;html=1;resizable=0;autosize=1;align=center;verticalAlign=middle;points=[];fillColor=#008a00;strokeColor=#005700;rounded=0;fontColor=#ffffff;" vertex="1" parent="1">
                    <mxGeometry x="530" y="280" width="40" height="20" as="geometry"/>
                </mxCell>
                <mxCell id="46" value="栈尾" style="text;html=1;resizable=0;autosize=1;align=center;verticalAlign=middle;points=[];fillColor=#008a00;strokeColor=#005700;rounded=0;fontColor=#ffffff;" vertex="1" parent="1">
                    <mxGeometry x="530" y="480" width="40" height="20" as="geometry"/>
                </mxCell>
                <mxCell id="60" style="edgeStyle=orthogonalEdgeStyle;rounded=1;orthogonalLoop=1;jettySize=auto;html=1;exitX=0.5;exitY=0;exitDx=0;exitDy=0;entryX=0.5;entryY=1;entryDx=0;entryDy=0;" edge="1" parent="1" source="47" target="50">
                    <mxGeometry relative="1" as="geometry"/>
                </mxCell>
                <mxCell id="47" value="" style="whiteSpace=wrap;html=1;strokeColor=#transpant;fillColor=#d80073;fontColor=#ffffff;" vertex="1" parent="1">
                    <mxGeometry x="420" y="460" width="80" height="30" as="geometry"/>
                </mxCell>
                <mxCell id="48" value="element" style="text;html=1;resizable=0;autosize=1;align=center;verticalAlign=middle;points=[];fillColor=#d80073;strokeColor=#transpant;rounded=0;fontColor=#ffffff;" vertex="1" parent="1">
                    <mxGeometry x="430" y="465" width="60" height="20" as="geometry"/>
                </mxCell>
                <mxCell id="62" style="edgeStyle=orthogonalEdgeStyle;rounded=1;orthogonalLoop=1;jettySize=auto;html=1;exitX=0.5;exitY=0;exitDx=0;exitDy=0;entryX=0.5;entryY=1;entryDx=0;entryDy=0;" edge="1" parent="1" source="50" target="52">
                    <mxGeometry relative="1" as="geometry"/>
                </mxCell>
                <mxCell id="50" value="" style="whiteSpace=wrap;html=1;strokeColor=#transpant;fillColor=#d80073;fontColor=#ffffff;" vertex="1" parent="1">
                    <mxGeometry x="420" y="410" width="80" height="30" as="geometry"/>
                </mxCell>
                <mxCell id="51" value="element" style="text;html=1;resizable=0;autosize=1;align=center;verticalAlign=middle;points=[];fillColor=#d80073;strokeColor=#transpant;rounded=0;fontColor=#ffffff;" vertex="1" parent="1">
                    <mxGeometry x="430" y="415" width="60" height="20" as="geometry"/>
                </mxCell>
                <mxCell id="61" style="edgeStyle=orthogonalEdgeStyle;rounded=1;orthogonalLoop=1;jettySize=auto;html=1;exitX=0.5;exitY=0;exitDx=0;exitDy=0;entryX=0.5;entryY=1;entryDx=0;entryDy=0;" edge="1" parent="1" source="52" target="56">
                    <mxGeometry relative="1" as="geometry"/>
                </mxCell>
                <mxCell id="52" value="" style="whiteSpace=wrap;html=1;strokeColor=#transpant;fillColor=#d80073;fontColor=#ffffff;" vertex="1" parent="1">
                    <mxGeometry x="420" y="360" width="80" height="30" as="geometry"/>
                </mxCell>
                <mxCell id="54" value="element" style="text;html=1;resizable=0;autosize=1;align=center;verticalAlign=middle;points=[];fillColor=#d80073;strokeColor=#transpant;rounded=0;fontColor=#ffffff;" vertex="1" parent="1">
                    <mxGeometry x="430" y="365" width="60" height="20" as="geometry"/>
                </mxCell>
                <mxCell id="63" style="edgeStyle=orthogonalEdgeStyle;rounded=1;orthogonalLoop=1;jettySize=auto;html=1;exitX=0.5;exitY=0;exitDx=0;exitDy=0;" edge="1" parent="1" source="56">
                    <mxGeometry relative="1" as="geometry">
                        <mxPoint x="560" y="220" as="targetPoint"/>
                    </mxGeometry>
                </mxCell>
                <mxCell id="56" value="" style="whiteSpace=wrap;html=1;strokeColor=#transpant;fillColor=#d80073;fontColor=#ffffff;" vertex="1" parent="1">
                    <mxGeometry x="420" y="305" width="80" height="30" as="geometry"/>
                </mxCell>
                <mxCell id="57" value="element" style="text;html=1;resizable=0;autosize=1;align=center;verticalAlign=middle;points=[];fillColor=#d80073;strokeColor=#transpant;rounded=0;fontColor=#ffffff;" vertex="1" parent="1">
                    <mxGeometry x="430" y="310" width="60" height="20" as="geometry"/>
                </mxCell>
                <mxCell id="65" value="" style="endArrow=classic;html=1;" edge="1" parent="1">
                    <mxGeometry width="50" height="50" relative="1" as="geometry">
                        <mxPoint x="280" y="240" as="sourcePoint"/>
                        <mxPoint x="159" y="300" as="targetPoint"/>
                        <Array as="points">
                            <mxPoint x="240" y="240"/>
                            <mxPoint x="159" y="240"/>
                        </Array>
                    </mxGeometry>
                </mxCell>
            </root>
        </mxGraphModel>
    </diagram>
</mxfile>